HIERARCHY
ROOT SpineBase
{
  OFFSET 0.000000 0.000000 0.000000
  CHANNELS 6 Xposition Yposition Zposition Zrotation Xrotation Yrotation
  JOINT SpineMid
  {
    OFFSET -0.000000 28.997081 0.000000
    CHANNELS 3 Zrotation Xrotation Yrotation
    JOINT SpineShoulder
    {
      OFFSET -0.068410 21.554859 -0.968488
      CHANNELS 3 Zrotation Xrotation Yrotation
      JOINT Neck
      {
        OFFSET -0.012280 7.139663 -0.665566
        CHANNELS 3 Zrotation Xrotation Yrotation
        JOINT Head
        {
          OFFSET -1.939725 12.100039 1.900197
          CHANNELS 3 Zrotation Xrotation Yrotation
          End Site
          {
            OFFSET 0 0 0
          }
        }
      }
      JOINT ShoulderLeft
      {
        OFFSET -10.083933 -3.033547 10.837896
        CHANNELS 3 Zrotation Xrotation Yrotation
        JOINT ElbowLeft
        {
          OFFSET -2.556501 -29.445210 5.977834
          CHANNELS 3 Zrotation Xrotation Yrotation
          JOINT WristLeft
          {
            OFFSET -0.222683 -24.749330 -1.860390
            CHANNELS 3 Zrotation Xrotation Yrotation
            JOINT HandLeft
            {
              OFFSET -1.208102 -3.872201 -1.713067
              CHANNELS 3 Zrotation Xrotation Yrotation
              JOINT HandTipLeft
              {
                OFFSET 0.036704 -4.680445 -3.616048
                CHANNELS 3 Zrotation Xrotation Yrotation
                End Site
                {
                  OFFSET 0 0 0
                }
              }
              JOINT ThumbLeft
              {
                OFFSET -0.869071 1.002984 -0.172820
                CHANNELS 3 Zrotation Xrotation Yrotation
                End Site
                {
                  OFFSET 0 0 0
                }
              }
            }
          }
        }
      }
      JOINT ShoulderRight
      {
        OFFSET 6.120295 -3.806792 -13.348408
        CHANNELS 3 Zrotation Xrotation Yrotation
        JOINT ElbowRight
        {
          OFFSET 4.026593 -23.606744 -4.403559
          CHANNELS 3 Zrotation Xrotation Yrotation
          JOINT WristRight
          {
            OFFSET -5.573075 -21.284683 -3.738833
            CHANNELS 3 Zrotation Xrotation Yrotation
            JOINT HandRight
            {
              OFFSET -0.897252 -5.381608 0.200036
              CHANNELS 3 Zrotation Xrotation Yrotation
              JOINT HandTipRight
              {
                OFFSET -1.107564 -6.022603 0.681926
                CHANNELS 3 Zrotation Xrotation Yrotation
                End Site
                {
                  OFFSET 0 0 0
                }
              }
              JOINT ThumbRight
              {
                OFFSET -4.586593 -2.997872 -0.108968
                CHANNELS 3 Zrotation Xrotation Yrotation
                End Site
                {
                  OFFSET 0 0 0
                }
              }
            }
          }
        }
      }
    }
  }
  JOINT HipLeft
  {
    OFFSET -4.241179 0.926150 1.052898
    CHANNELS 3 Zrotation Xrotation Yrotation
    JOINT KneeLeft
    {
      OFFSET 5.642171 -29.727851 8.043276
      CHANNELS 3 Zrotation Xrotation Yrotation
      JOINT AnkleLeft
      {
        OFFSET 8.985227 -30.799286 5.189179
        CHANNELS 3 Zrotation Xrotation Yrotation
        JOINT FootLeft
        {
          OFFSET -8.952536 -2.959142 -10.582110
          CHANNELS 3 Zrotation Xrotation Yrotation
          End Site
          {
            OFFSET 0 0 0
          }
        }
      }
    }
  }
  JOINT HipRight
  {
    OFFSET 3.618141 0.635102 -7.834219
    CHANNELS 3 Zrotation Xrotation Yrotation
    JOINT KneeRight
    {
      OFFSET 9.918676 -31.367073 3.334319
      CHANNELS 3 Zrotation Xrotation Yrotation
      JOINT AnkleRight
      {
        OFFSET 5.687048 -29.998372 4.950392
        CHANNELS 3 Zrotation Xrotation Yrotation
        JOINT FootRight
        {
          OFFSET -3.760754 -7.231849 4.235981
          CHANNELS 3 Zrotation Xrotation Yrotation
          End Site
          {
            OFFSET 0 0 0
          }
        }
      }
    }
  }
}
MOTION
Frames: 8
Frame Time: 0.033333
30.460041 68.200714 341.996891 0.000000 0.000000 48.512074 -0.000000 0.000000 -48.512074 -0.000000 0.000000 0.000000 -0.000000 0.000000 0.000000 0.000000 0.000000 0.000000 -0.000000 0.000000 0.000000 -0.000000 0.000000 0.000000 -0.000000 0.000000 0.000000 -0.000000 0.000000 0.000000 0.000000 0.000000 0.000000 0.000000 0.000000 0.000000 -0.000000 0.000000 0.000000 -0.000000 0.000000 0.000000 -0.000000 0.000000 0.000000 -0.000000 0.000000 0.000000 0.000000 0.000000 0.000000 0.000000 0.000000 0.000000 -0.000000 0.000000 -48.512074 -0.000000 0.000000 0.000000 -0.000000 0.000000 0.000000 0.000000 0.000000 0.000000 -0.000000 0.000000 -48.512074 -0.000000 0.000000 0.000000 -0.000000 0.000000 0.000000 0.000000 0.000000 0.000000
30.363102 68.208946 342.113724 -0.217162 -0.141879 48.281987 0.250416 -0.067681 -48.282108 -0.000000 0.000000 0.000000 -0.000000 0.000000 0.000000 0.000000 0.000000 0.000000 -0.000000 0.000000 0.000000 2.775438 -1.311988 -0.165257 0.737267 2.435734 -1.803550 -0.952936 0.276376 -0.058470 0.000000 0.000000 0.000000 0.000000 0.000000 0.000000 -0.000000 0.000000 0.000000 3.170838 -1.124745 -0.233583 -0.957335 -1.164035 0.760848 2.331623 0.207730 0.377817 0.000000 0.000000 0.000000 0.000000 0.000000 0.000000 0.250416 -0.067681 -48.282108 -0.000000 0.000000 0.000000 5.617930 -7.298741 3.789845 0.000000 0.000000 0.000000 0.250416 -0.067681 -48.282108 -0.000000 0.000000 0.000000 -0.572844 0.731994 -0.713348 0.000000 0.000000 0.000000
30.284810 68.219567 342.212380 -0.383500 -0.261418 48.118656 0.450653 -0.111009 -48.119094 -0.000000 0.000000 0.000000 -0.000000 0.000000 0.000000 0.000000 0.000000 0.000000 -0.000000 0.000000 0.000000 4.523907 -2.041542 -0.241627 0.604999 3.642141 -2.649256 -1.111582 0.373250 -0.303982 0.000000 0.000000 0.000000 0.000000 0.000000 0.000000 -1.220038 -0.405596 0.154474 6.330561 -1.433460 -0.544816 -1.722288 -1.993061 1.276678 3.857953 0.261549 0.564229 0.000000 0.000000 0.000000 0.000000 0.000000 0.000000 0.072782 0.610254 -48.293316 0.789874 -0.197746 0.177232 12.443281 -14.758231 8.877548 0.000000 0.000000 0.000000 0.450653 -0.111009 -48.119094 -0.000000 0.000000 0.000000 -0.952762 1.684573 -1.426204 0.000000 0.000000 0.000000
30.225165 68.232578 342.292858 -0.498995 -0.358619 48.022469 0.600344 -0.131104 -48.023344 -0.000000 0.000000 0.000000 -0.000000 0.000000 0.000000 0.000000 0.000000 0.000000 -0.000000 0.000000 0.000000 5.339471 -2.229479 -0.278143 -0.026389 3.887435 -2.699595 -0.682477 0.310319 -0.662383 0.000000 0.000000 0.000000 0.000000 0.000000 0.000000 -1.384439 -0.554455 0.157457 7.277106 -1.568392 -0.612528 -2.495112 -2.416681 1.490220 4.929135 -0.018198 0.700401 0.000000 0.000000 0.000000 0.000000 0.000000 0.000000 0.074004 0.897245 -48.266267 1.924763 -0.815674 0.238808 18.633917 -20.451094 14.377338 0.000000 0.000000 0.000000 1.393198 0.133745 -47.745581 -0.337126 -0.764927 -0.280032 -1.111282 2.870217 -2.136333 0.000000 0.000000 0.000000
30.184166 68.247977 342.355160 -0.563607 -0.433476 47.993755 0.699270 -0.128723 -47.995102 -0.000000 0.000000 0.000000 -0.000000 0.000000 0.000000 0.000000 0.000000 0.000000 -0.000000 0.000000 0.000000 5.262650 -1.889187 -0.292521 -1.139174 3.210566 -1.979095 0.365969 0.098308 -1.178538 0.000000 0.000000 0.000000 0.000000 0.000000 0.000000 -1.271416 -0.671451 0.115542 6.820932 -1.317498 -0.565264 -3.488604 -2.324589 1.356595 5.811297 -0.797446 0.869661 0.000000 0.000000 0.000000 0.000000 0.000000 0.000000 0.060809 1.157746 -48.291225 2.324340 -0.972938 0.300550 24.021289 -24.333110 19.008937 0.000000 0.000000 0.000000 1.599928 0.143245 -47.683541 -0.405277 -0.849065 -0.314678 -1.019480 4.298588 -2.844122 0.000000 0.000000 0.000000
30.161815 68.265765 342.399285 -0.577278 -0.485974 48.032768 0.747357 -0.104261 -48.034537 -0.000000 0.000000 0.000000 0.442972 -0.655992 -0.172239 0.000000 0.000000 0.000000 -0.000000 0.000000 0.000000 4.279323 -1.003319 -0.275583 -3.029643 1.442345 -0.376270 2.298534 -0.259366 -2.023094 0.000000 0.000000 0.000000 0.000000 0.000000 0.000000 -0.885528 -0.759245 0.029891 4.959272 -0.680668 -0.388317 -4.939118 -1.535117 0.849830 6.704988 -2.258191 1.102514 0.000000 0.000000 0.000000 0.000000 0.000000 0.000000 0.038155 1.383197 -48.366729 2.596134 -1.076888 0.347723 26.419684 -25.823254 21.244219 0.000000 0.000000 0.000000 1.674110 0.131134 -47.719947 -0.449354 -0.844023 -0.318117 -0.648742 5.975097 -3.553220 0.000000 0.000000 0.000000
30.093002 68.304097 342.496591 -0.634266 -0.581368 47.869158 0.856624 -0.080405 -47.871775 -0.000000 0.000000 0.000000 0.360261 -0.773411 -0.178229 0.000000 0.000000 0.000000 -0.000000 0.000000 0.000000 3.525901 0.673646 -0.291870 -5.954679 -2.687109 1.879133 2.863285 -2.364424 -2.170268 0.000000 0.000000 0.000000 0.000000 0.000000 0.000000 -0.200711 -0.922640 -0.121773 2.576251 -0.267196 -0.000233 -6.477629 -0.398113 0.267970 6.594282 -3.045913 0.996348 0.000000 0.000000 0.000000 0.000000 0.000000 0.000000 1.293148 0.984569 -47.812470 0.495966 -1.038629 -0.058254 22.498903 -22.990883 19.172595 0.000000 0.000000 0.000000 1.865747 0.111236 -47.538106 0.169450 -0.443582 -0.131024 -0.911213 4.137831 -2.757288 0.000000 0.000000 0.000000
30.121088 68.312344 342.464995 -0.535368 -0.526206 48.162483 0.749139 -0.047894 -48.164628 -0.000000 0.000000 0.000000 0.239809 -0.841075 -0.170872 0.000000 0.000000 0.000000 -0.000000 0.000000 0.000000 1.574089 2.693135 -0.179275 -20.223929 -11.467133 8.640494 14.625137 -2.156766 -8.800403 0.000000 0.000000 0.000000 0.000000 0.000000 0.000000 1.667081 -1.395447 -0.528611 -2.744094 1.895197 0.647350 -12.909209 1.177391 -0.753526 8.169605 -5.491254 0.673439 0.000000 0.000000 0.000000 0.000000 0.000000 0.000000 0.736774 1.324868 -48.271839 1.577744 -1.531996 0.035445 22.217434 -22.718167 17.916864 0.000000 0.000000 0.000000 0.749139 -0.047894 -48.164628 0.577630 1.077911 0.294419 3.218923 11.028759 -5.152590 0.000000 0.000000 0.000000
